<svg width="177" height="57" viewBox="0 0 177 57" fill="none" xmlns="http://www.w3.org/2000/svg">
<path fill-rule="evenodd" clip-rule="evenodd" d="M3.46752 36.4289C2.95018 35.906 2.2799 35.8332 1.79797 36.2511C1.19561 36.772 1.17197 37.5278 1.4895 37.9676C1.80693 38.4074 2.02612 38.6808 2.39804 39.027C5.30158 42.2219 7.00905 44.0444 11.5611 47.2289C16.1133 50.4144 18.7601 54.0137 32.8822 55.4817C40.3439 56.2562 49.3238 55.6189 59.0737 50.6566C63.9127 48.1937 70.9395 42.2115 70.9395 42.2115C75.4754 43.641 83.9982 45.8004 94.1691 45.3741C95.5234 45.318 96.8579 45.1308 98.0727 44.9946C100.271 44.7472 102.238 44.4332 104.38 43.9872C104.536 43.9477 104.691 43.9072 104.846 43.8656C105.143 43.7866 105.474 43.7003 105.837 43.6057C107.425 43.1877 109.123 42.723 110.875 42.093C111.73 41.7852 112.611 41.4338 113.491 41.0294C113.51 41.0211 113.53 41.0127 113.548 41.0034C113.586 40.9857 113.624 40.9681 113.662 40.9504L113.667 40.9483C115.99 39.7932 119.03 37.8189 119.553 37.4779C120.076 37.1369 122.635 35.1083 122.915 34.8622C123.195 34.6161 123.374 34.4768 123.685 34.0345C123.996 33.592 123.962 33.2377 123.884 32.792C123.806 32.3463 123.375 30.221 123.375 30.221C123.342 30.0695 135.327 48.8102 135.506 49.0659C135.82 49.5192 136.286 49.9933 136.8 49.9715C137.312 49.9496 137.462 49.8166 137.85 49.3508C138.917 48.0668 163.299 17.5384 175.408 2.4744C175.615 2.18007 175.78 1.84686 175.54 1.5151C175.267 1.13594 174.854 1.08146 174.313 1.14249L171.49 1.66534C171.311 1.38276 170.61 0.861054 169.241 1.03457C167.872 1.2082 124.81 5.36371 103.45 7.41974C103.2 7.41745 102.516 7.53119 102.176 8.22516C101.849 8.8921 102.058 9.40091 102.419 9.76198C102.779 10.1231 109.718 16.9424 113.303 20.4882C113.303 20.4882 114.203 34.641 114.287 35.3955C114.37 36.1503 114.829 36.4383 115.29 36.5214C115.751 36.6056 116.111 36.2948 116.358 35.8082C116.358 35.8082 118.712 30.3592 120.267 26.5059C120.247 26.3581 120.255 26.3732 120.267 26.4096C120.273 26.4342 120.281 26.4688 120.281 26.4688L120.267 26.5059C120.315 26.8749 120.543 28.2607 121.371 32.8724C121.368 33.0115 121.336 33.0577 121.104 33.2516C119.605 34.5122 119.168 34.866 117.97 35.6304L116.315 36.641L114.346 37.7617C110.813 39.7121 107.615 40.5709 104.845 41.202C101.03 42.0701 96.4694 42.8457 91.2063 42.9361C86.2318 43.0203 80.6291 42.4943 74.4368 40.8547C73.919 40.7175 73.3117 40.5595 72.8231 40.4046C76.9725 36.5817 81.3886 30.3204 81.9449 24.3831C82.6314 17.0504 78.4383 15.1428 76.5933 15.1246C74.9889 14.7873 72.0397 14.9873 68.7622 20.6605C65.8786 17.8413 62.0646 15.0935 58.2486 17.1372C53.4785 19.6918 53.4381 24.4992 55.2015 28.7686C57.1206 32.1661 58.4861 35.2895 68.3549 41.2519C64.2128 44.794 59.5779 47.6094 55.4643 49.7022C48.7693 53.1071 35.43 54.7175 24.7392 51.5143C16.7083 49.1075 9.47369 42.5379 4.84142 37.8324C4.58723 37.5736 3.71891 36.6836 3.46752 36.4289ZM170.323 5.31204L121.908 24.1491L136.924 46.7704L170.323 5.31204ZM59.1258 30.4776C60.2051 32.2028 63.4554 36.6483 70.3489 39.4886C71.7907 38.1714 72.9398 36.9997 74.1138 35.7313C78.2851 31.2251 79.2081 25.8944 79.2488 25.4991C79.2686 25.3114 79.6238 24.1587 79.4352 21.6702C79.2967 19.8288 78.6112 18.4744 76.8662 17.7983C74.3378 16.8192 72.1459 19.988 71.5896 20.8594C71.0333 21.7307 70.8666 21.9915 70.5135 22.7121C70.1603 23.4327 70.3999 22.988 70.1009 23.5292C69.8019 24.0705 69.5446 24.2862 69.206 24.3316C68.8664 24.3772 68.4643 24.1097 68.0944 23.6954C67.8496 23.422 66.2984 21.7793 65.8994 21.4059C65.5004 21.0326 61.7073 17.6245 58.5976 20.3036C55.4876 22.9826 57.1908 27.3835 59.1258 30.4776ZM115.76 19.6141C115.718 19.5382 105.983 9.66332 105.983 9.66332L157.329 4.81415L119.155 16.6632C118.681 16.8356 118.174 17.4233 118.393 18.1886C118.61 18.9539 119.287 19.3338 119.956 19.1889L154.776 8.44848C143.466 12.9166 120.676 21.8941 119.994 22.0579C119.312 22.2219 119.045 22.7603 118.996 23.009L116.367 29.3719C116.367 29.3719 115.801 19.69 115.76 19.6141Z" fill="#78881C"/>
<path d="M70.9395 42.2115C75.4754 43.641 83.9982 45.8004 94.1691 45.3741C95.5234 45.318 96.8579 45.1308 98.0726 44.9946C100.271 44.7472 102.238 44.4332 104.38 43.9872M70.9395 42.2115C70.9395 42.2115 63.9127 48.1937 59.0737 50.6566C49.3238 55.6189 40.3439 56.2562 32.8822 55.4817C18.7601 54.0137 16.1133 50.4144 11.5611 47.2289C7.00905 44.0444 5.30157 42.2219 2.39804 39.027C2.02612 38.6808 1.80693 38.4074 1.4895 37.9676C1.17197 37.5278 1.19561 36.772 1.79797 36.2511C2.2799 35.8332 2.95018 35.906 3.46752 36.4289C3.7189 36.6836 4.58723 37.5736 4.84142 37.8324C9.47369 42.5379 16.7083 49.1075 24.7392 51.5143C35.43 54.7175 48.7692 53.1071 55.4643 49.7022C59.5779 47.6094 64.2128 44.794 68.3549 41.2519C58.4861 35.2895 57.1206 32.1661 55.2015 28.7686C53.4381 24.4992 53.4785 19.6918 58.2486 17.1372C62.0646 15.0935 65.8786 17.8413 68.7622 20.6605C72.0396 14.9873 74.9889 14.7873 76.5932 15.1246C78.4382 15.1428 82.6314 17.0504 81.9449 24.3831C81.3886 30.3204 76.9725 36.5817 72.8231 40.4046C73.3117 40.5595 73.919 40.7175 74.4368 40.8547C80.6291 42.4943 86.2318 43.0203 91.2063 42.9361C96.4693 42.8457 101.03 42.0701 104.845 41.202C107.615 40.5709 110.813 39.7121 114.346 37.7617L116.315 36.641L117.97 35.6304C119.168 34.866 119.605 34.5122 121.104 33.2516C121.336 33.0577 121.368 33.0115 121.371 32.8724C120.543 28.2607 120.315 26.8749 120.267 26.5059M70.9395 42.2115C70.9364 42.2156 70.9427 42.2063 70.9395 42.2115ZM104.38 43.9872C104.536 43.9477 104.691 43.9072 104.846 43.8656M104.38 43.9872C104.524 43.9508 104.681 43.9103 104.846 43.8656M120.267 26.5059C120.271 26.4935 120.276 26.4811 120.281 26.4688M120.267 26.5059L120.281 26.4688M120.267 26.5059C118.712 30.3592 116.358 35.8082 116.358 35.8082C116.111 36.2948 115.751 36.6056 115.29 36.5214C114.829 36.4383 114.37 36.1503 114.287 35.3955C114.203 34.641 113.303 20.4882 113.303 20.4882C109.718 16.9424 102.779 10.1231 102.419 9.76198C102.058 9.40091 101.849 8.8921 102.176 8.22516C102.516 7.53119 103.2 7.41745 103.45 7.41974C124.81 5.36371 167.872 1.2082 169.241 1.03457C170.61 0.861055 171.311 1.38276 171.49 1.66534L174.313 1.14249C174.854 1.08146 175.267 1.13594 175.54 1.5151C175.78 1.84686 175.615 2.18007 175.408 2.4744C163.299 17.5384 138.917 48.0668 137.85 49.3508C137.462 49.8166 137.312 49.9496 136.8 49.9715C136.286 49.9933 135.82 49.5192 135.506 49.0659C135.327 48.8102 123.342 30.0695 123.375 30.221C123.375 30.221 123.806 32.3463 123.884 32.792C123.962 33.2377 123.996 33.592 123.685 34.0345C123.374 34.4768 123.195 34.6161 122.915 34.8622C122.635 35.1083 120.076 37.1369 119.553 37.4779C119.03 37.8189 115.99 39.7932 113.667 40.9483M120.267 26.5059C120.247 26.3581 120.255 26.3732 120.267 26.4096M120.281 26.4688C120.276 26.449 120.271 26.4293 120.267 26.4096M120.281 26.4688C120.281 26.4688 120.273 26.4342 120.267 26.4096M68.0944 23.6954C67.8496 23.422 66.2984 21.7793 65.8994 21.4059C65.5004 21.0326 61.7073 17.6245 58.5976 20.3036C55.4876 22.9826 57.1908 27.3835 59.1258 30.4776C60.2051 32.2028 63.4554 36.6483 70.3488 39.4886C71.7907 38.1714 72.9397 36.9997 74.1138 35.7313C78.2851 31.2251 79.2081 25.8944 79.2488 25.4991C79.2686 25.3114 79.6238 24.1587 79.4352 21.6702C79.2967 19.8288 78.6112 18.4744 76.8662 17.7983C74.3378 16.8192 72.1459 19.988 71.5896 20.8594C71.0333 21.7307 70.8666 21.9915 70.5134 22.7121C70.1603 23.4327 70.3999 22.988 70.1009 23.5292M68.0944 23.6954C68.0298 23.6232 68.1434 23.7504 68.0944 23.6954ZM68.0944 23.6954C68.4643 24.1097 68.8664 24.3772 69.206 24.3316C69.5446 24.2862 69.8019 24.0705 70.1009 23.5292M70.1009 23.5292C69.8019 24.0705 70.1749 23.4208 70.1009 23.5292ZM104.846 43.8656C105.143 43.7866 105.474 43.7003 105.837 43.6057M104.846 43.8656C105.171 43.7803 105.502 43.694 105.837 43.6057M105.837 43.6057C107.425 43.1877 109.123 42.723 110.875 42.093M105.837 43.6057C107.193 43.2522 108.971 42.7802 110.875 42.093M113.667 40.9483L113.662 40.9504M113.667 40.9483C113.665 40.9493 113.664 40.9493 113.662 40.9504M113.667 40.9483C113.627 40.967 113.588 40.9857 113.548 41.0034M113.662 40.9504C113.624 40.968 113.586 40.9857 113.548 41.0034M113.548 41.0034C113.53 41.0127 113.51 41.0211 113.491 41.0294M110.875 42.093C111.737 41.7831 112.611 41.4338 113.491 41.0294M110.875 42.093C111.73 41.7852 112.611 41.4338 113.491 41.0294M121.907 24.1491L170.323 5.31204L136.924 46.7704L121.907 24.1491ZM105.983 9.66332C105.983 9.66332 115.718 19.5382 115.76 19.6141C115.801 19.69 116.367 29.3719 116.367 29.3719L118.996 23.009C119.045 22.7603 119.312 22.2219 119.994 22.0579C120.676 21.8941 143.466 12.9166 154.776 8.44848L119.956 19.1889C119.287 19.3338 118.61 18.9539 118.393 18.1886C118.174 17.4233 118.681 16.8356 119.155 16.6632L157.329 4.81415L105.983 9.66332Z" stroke="#78881C" stroke-width="1.62595"/>
</svg>
